<?xml version="1.0" standalone="no"?><!DOCTYPE svg PUBLIC "-//W3C//DTD SVG 1.1//EN" "http://www.w3.org/Graphics/SVG/1.1/DTD/svg11.dtd"><svg t="1729952683940" class="icon" viewBox="0 0 1024 1024" version="1.1" xmlns="http://www.w3.org/2000/svg" p-id="13997" xmlns:xlink="http://www.w3.org/1999/xlink" width="200" height="200"><path d="M36.2496 133.888h954.112c16.9472 0 30.72-13.7728 30.72-30.72s-13.7728-30.72-30.72-30.72H36.2496c-16.9472 0-30.72 13.7728-30.72 30.72s13.7216 30.72 30.72 30.72zM34.6624 394.3424h374.0672c16.9472 0 30.72-13.7728 30.72-30.72s-13.7728-30.72-30.72-30.72H34.6624c-16.9472 0-30.72 13.7728-30.72 30.72s13.7728 30.72 30.72 30.72zM34.6624 658.7904h273.6128c16.9472 0 30.72-13.7728 30.72-30.72s-13.7728-30.72-30.72-30.72H34.6624c-16.9472 0-30.72 13.7728-30.72 30.72s13.7728 30.72 30.72 30.72zM390.7584 861.7472H34.6624c-16.9472 0-30.72 13.7728-30.72 30.72s13.7728 30.72 30.72 30.72h356.096c16.9472 0 30.72-13.7728 30.72-30.72s-13.7728-30.72-30.72-30.72zM930.6112 424.192c-28.3648-28.3648-61.3888-50.6368-98.2016-66.2016-38.0928-16.128-78.5408-24.2688-120.2688-24.2688s-82.1248 8.192-120.2688 24.2688c-36.8128 15.5648-69.8368 37.8368-98.2016 66.2016-28.3648 28.3648-50.6368 61.3888-66.2016 98.2016-16.128 38.0928-24.2688 78.5408-24.2688 120.2688s8.192 82.1248 24.2688 120.2688c15.5648 36.8128 37.8368 69.8368 66.2016 98.2016s61.3888 50.6368 98.2016 66.2016c38.0928 16.128 78.5408 24.2688 120.2688 24.2688s82.1248-8.192 120.2688-24.2688c36.8128-15.5648 69.8368-37.8368 98.2016-66.2016 28.3648-28.3648 50.6368-61.3888 66.2016-98.2016 16.128-38.0928 24.2688-78.5408 24.2688-120.2688s-8.192-82.1248-24.2688-120.2688c-15.616-36.8128-37.888-69.8368-66.2016-98.2016z m-218.4704 465.92c-136.448 0-247.4496-111.0016-247.4496-247.4496s111.0016-247.4496 247.4496-247.4496 247.4496 111.0016 247.4496 247.4496c0.0512 136.448-111.0016 247.4496-247.4496 247.4496z" fill="#0C0202" p-id="13998"></path><path d="M742.8608 611.9424v-92.3136c0-16.9472-13.7728-30.72-30.72-30.72s-30.72 13.7728-30.72 30.72v123.0336c0 16.9472 13.7728 30.72 30.72 30.72h171.8784c16.9472 0 30.72-13.7728 30.72-30.72s-13.7728-30.72-30.72-30.72h-141.1584z" fill="#0C0202" p-id="13999"></path></svg>