<?xml version="1.0" standalone="no"?><!DOCTYPE svg PUBLIC "-//W3C//DTD SVG 1.1//EN" "http://www.w3.org/Graphics/SVG/1.1/DTD/svg11.dtd"><svg t="1729954108685" class="icon" viewBox="0 0 1024 1024" version="1.1" xmlns="http://www.w3.org/2000/svg" p-id="16431" xmlns:xlink="http://www.w3.org/1999/xlink" width="200" height="200"><path d="M1008.85598 924.672l-156.512-67.514-128.612-55.48c-15.886-6.85-33.5-7.14-49.604-0.808l-72.138 28.368a468.488 468.488 0 0 1-12.834-108.002l-0.316-186.402a14.906 14.906 0 0 0-14.908-14.882h-0.026a14.908 14.908 0 0 0-14.882 14.934l0.316 186.402a498.46 498.46 0 0 0 14.654 118.962l-46.626 18.336-0.15-43.62a14.906 14.906 0 0 0-14.908-14.856h-0.052a14.908 14.908 0 0 0-14.856 14.96l0.188 55.226-20.53 8.074-32.98-13.408a497.548 497.548 0 0 0 20.882-143.516l-0.528-312.106 32.282-0.056 0.588 348.096a14.906 14.906 0 0 0 14.908 14.882h0.026a14.908 14.908 0 0 0 14.882-14.934l-0.588-348.096 32.282-0.056 0.112 66.074a14.906 14.906 0 0 0 14.908 14.882h0.026a14.908 14.908 0 0 0 14.882-14.934l-0.112-66.072 41.236-0.07 25.482 24.126a23.53 23.53 0 0 0 25.52 4.524 23.526 23.526 0 0 0 14.224-21.666l-0.094-55.636c-0.044-26.334-21.484-47.726-47.804-47.726h-0.084l-38.89 0.066-37.596-57.122-0.274-162.054c17.206-3.954 30.088-19.358 30.088-37.746 0-21.372-17.388-38.76-38.76-38.76h-103.36c-21.372 0-38.76 17.388-38.76 38.76 0 20.678 16.29 37.576 36.702 38.656l0.274 161.34-37.402 57.25-43.322 0.074a47.502 47.502 0 0 0-33.782 14.058 47.504 47.504 0 0 0-13.946 33.828l0.096 56.068a23.554 23.554 0 0 0 23.544 23.51c5.814 0 11.548-2.152 15.984-6.25l26.962-24.9 39.946-0.068 0.528 312.106a467.744 467.744 0 0 1-18.82 132.184l-81.418-33.098a64.98 64.98 0 0 0-47.21-0.706L9.81598 924.408a14.908 14.908 0 1 0 10.5 27.906l105.876-39.828 90.96 48.014 10.178 35.624a14.914 14.914 0 0 0 14.328 10.816 14.908 14.908 0 0 0 14.34-19.008l-3.088-10.81 32.484-0.004a14.906 14.906 0 0 0 14.906-14.91 14.908 14.908 0 0 0-14.91-14.906l-41 0.004-0.32-1.12a14.908 14.908 0 0 0-7.374-9.088l-73.21-38.644 134.648-50.65a35.194 35.194 0 0 1 25.55 0.396l226.422 92.042a14.908 14.908 0 1 0 11.226-27.622l-43.89-17.842a14.586 14.586 0 0 0 2.972-1.428l164.624-64.74a35.06 35.06 0 0 1 26.884 0.44l99.406 42.88-53.662 27.298a14.884 14.884 0 0 0-4.636 3.674l-17.038 20.192-52.036-3.588c-8.21-0.544-15.334 5.632-15.9 13.846a14.912 14.912 0 0 0 13.846 15.9l30.258 2.088-12.798 15.168a14.908 14.908 0 0 0 1.782 21.008 14.842 14.842 0 0 0 9.606 3.514c4.24 0 8.452-1.798 11.402-5.296l51.722-61.3 73.04-37.15 150.132 64.764a14.896 14.896 0 0 0 19.594-7.784 14.908 14.908 0 0 0-7.784-19.592zM449.37798 55.822a8.956 8.956 0 0 1 8.944-8.944h103.36a8.956 8.956 0 0 1 8.944 8.944 8.956 8.956 0 0 1-8.944 8.944h-103.36a8.952 8.952 0 0 1-8.944-8.944z m91.258 94.342l0.04 22.982-54.458 0.092-0.04-22.982 54.458-0.092z m-54.51-29.726l-0.044-25.856h54.46l0.044 25.764-54.46 0.092z m54.598 82.52l0.04 22.98-54.458 0.092-0.04-22.98 54.458-0.092z m-151.918 176.694a14.912 14.912 0 0 0-10.09 3.956l-20.746 19.158-0.072-41.788c-0.008-4.806 1.856-9.328 5.248-12.732s7.908-5.284 12.714-5.292l89.94-0.154a14.908 14.908 0 0 0 14.882-14.934 14.906 14.906 0 0 0-14.908-14.882h-0.026l-10.96 0.018 29.144-44.608a14.9 14.9 0 0 0 2.426-8.18l-0.008-4.372 54.46-0.092 0.008 4.372a14.904 14.904 0 0 0 2.454 8.17l29.294 44.51-47.19 0.08a14.908 14.908 0 0 0-14.882 14.934 14.906 14.906 0 0 0 14.908 14.882h0.026l121.76-0.206h0.002c9.904 0 17.974 8.052 17.99 17.96l0.07 41.046-19.212-18.188a14.908 14.908 0 0 0-10.246-4.078l-246.986 0.42z" p-id="16432"></path><path d="M314.54598 612.376h-9.104c-2.568-39.892-35.84-71.558-76.368-71.558-1.532 0-3.064 0.046-4.592 0.138-17.45-45.08-62.498-74.556-111.892-71.472-56.722 3.53-102.87 50.818-105.062 107.654-1.19 30.86 9.92 60.082 31.284 82.284 21.374 22.216 50.118 34.448 80.938 34.448h194.794c22.468 0 40.748-18.278 40.748-40.748s-18.276-40.746-40.746-40.746z m-0.004 51.682H119.74798c-22.636 0-43.75-8.986-59.45-25.304-15.686-16.308-23.846-37.78-22.972-60.464 1.608-41.734 35.484-76.452 77.118-79.046 1.74-0.108 3.468-0.162 5.19-0.162 37.574 0 70.766 25.438 80.072 62.138a14.906 14.906 0 0 0 18.048 10.804 47 47 0 0 1 11.318-1.388c25.756 0 46.71 20.954 46.71 46.71 0 2.486-0.206 5.026-0.618 7.552a14.904 14.904 0 0 0 14.716 17.296h24.662c6.028 0 10.932 4.904 10.932 10.932s-4.902 10.932-10.932 10.932zM986.61198 189.216h-6.262c-3.146-35.084-32.714-62.676-68.602-62.676-0.93 0-1.86 0.018-2.786 0.056-15.912-39.526-55.734-65.252-99.354-62.532-50.618 3.15-91.802 45.35-93.756 96.07a100.5 100.5 0 0 0 3.374 29.988h-10.78c-20.764 0-37.656 16.894-37.656 37.656 0 20.764 16.892 37.656 37.656 37.656l278.166-1.136c20.7 0 37.542-16.84 37.542-37.54s-16.842-37.542-37.542-37.542z m0 45.264l-278.166 1.136c-4.324 0-7.842-3.518-7.842-7.842s3.518-7.84 7.842-7.84h32.72a14.902 14.902 0 0 0 12.828-7.312 14.916 14.916 0 0 0 0.244-14.764 70.426 70.426 0 0 1-8.59-36.58c1.374-35.616 30.282-65.248 65.814-67.46 33.848-2.108 64.464 20.136 72.772 52.892a14.908 14.908 0 0 0 18.048 10.804 39.21 39.21 0 0 1 9.47-1.16c21.538 0 39.062 17.524 39.062 39.064 0 2.082-0.172 4.208-0.516 6.316a14.904 14.904 0 0 0 14.716 17.296h21.6c4.26 0 7.726 3.466 7.726 7.726s-3.468 7.724-7.728 7.724z" p-id="16433"></path></svg>