<?xml version="1.0" standalone="no"?><!DOCTYPE svg PUBLIC "-//W3C//DTD SVG 1.1//EN" "http://www.w3.org/Graphics/SVG/1.1/DTD/svg11.dtd"><svg t="1732515151296" class="icon" viewBox="0 0 1024 1024" version="1.1" xmlns="http://www.w3.org/2000/svg" p-id="12334" xmlns:xlink="http://www.w3.org/1999/xlink" width="200" height="200"><path d="M682.666667 298.666667v85.333333h-42.666667V298.666667H384v85.333333H341.333333V298.666667H256v554.666666h512V298.666667h-85.333333zM341.333333 256V192A64 64 0 0 1 405.333333 128h213.333334A64 64 0 0 1 682.666667 192V256h213.333333a42.666667 42.666667 0 0 1 42.666667 42.666667v554.666666a42.666667 42.666667 0 0 1-42.666667 42.666667H128a42.666667 42.666667 0 0 1-42.666667-42.666667V298.666667a42.666667 42.666667 0 0 1 42.666667-42.666667h213.333333z m42.666667 0h256V192a21.333333 21.333333 0 0 0-21.333333-21.333333h-213.333334a21.333333 21.333333 0 0 0-21.333333 21.333333V256z m426.666667 42.666667v554.666666h85.333333V298.666667h-85.333333zM213.333333 298.666667H128v554.666666h85.333333V298.666667z" fill="#4E4E4E" p-id="12335"></path></svg>