<?xml version="1.0" standalone="no"?><!DOCTYPE svg PUBLIC "-//W3C//DTD SVG 1.1//EN" "http://www.w3.org/Graphics/SVG/1.1/DTD/svg11.dtd"><svg t="1729953416534" class="icon" viewBox="0 0 1024 1024" version="1.1" xmlns="http://www.w3.org/2000/svg" p-id="14963" xmlns:xlink="http://www.w3.org/1999/xlink" width="200" height="200"><path d="M783.218204 258.844946c0-0.903158 0-1.806315-0.180631-2.890104-0.180632-2.34821-0.541895-4.515788-1.264421-6.683366-0.361263-0.903158-0.541895-1.806315-0.903157-2.709472-1.264421-2.890104-3.070736-5.780208-5.418945-8.128418a27.817252 27.817252 0 0 0-8.128418-5.418945c-0.903158-0.361263-1.806315-0.722526-2.709473-0.903157-2.167578-0.722526-4.335156-1.083789-6.683365-1.264421-0.903158 0-1.986947-0.180632-2.890104-0.180632-2.709473 0.180632-5.418945 0.541895-7.947787 1.625684-0.361263 0.180632-0.903158 0.180632-1.26442 0.361263h-0.180632L237.349797 448.508026c-10.295996 4.335156-16.79873 14.631152-16.437467 25.649674 0.361263 11.199153 7.405892 20.953255 17.882519 24.746516l203.571706 72.794496 72.794496 203.571706c3.793262 10.476627 13.547363 17.701887 24.746516 17.882519h0.722526c10.83789 0 20.772623-6.502734 24.927148-16.437467l215.674017-508.477686v-0.180631c0.180632-0.361263 0.180632-0.903158 0.361263-1.264421 1.083789-2.528841 1.625684-5.238314 1.625683-7.947786z m-144.505203 78.394073L456.636444 519.315576l-134.209208-47.867349 316.285765-134.209208zM542.797672 691.818663l-47.867349-134.209208 182.076557-182.076557-134.209208 316.285765z" fill="#545454" p-id="14964"></path></svg>