<?xml version="1.0" standalone="no"?><!DOCTYPE svg PUBLIC "-//W3C//DTD SVG 1.1//EN" "http://www.w3.org/Graphics/SVG/1.1/DTD/svg11.dtd"><svg t="1729952669557" class="icon" viewBox="0 0 1024 1024" version="1.1" xmlns="http://www.w3.org/2000/svg" p-id="11438" xmlns:xlink="http://www.w3.org/1999/xlink" width="200" height="200"><path d="M927 693.9c0 3.72-0.12 7.41-0.29 11.09h-0.31c2.06 11.8-1.23 23.89-9.05 33.2-7.82 9.31-19.42 14.95-31.84 15.49v0.11h-43.34l-6.15-44.36h3.38v-0.11c15.34-0.74 29.15-9.18 36.37-22.22 7.22-13.04 6.79-28.78-1.13-41.44-17.38-66.12-68.95-118.95-136.44-139.8l-0.24-0.49s-23.06-3.61-23.06-22.18S737.96 461 737.96 461l-0.19-1.28c1.35 0.33 2.73 0.58 4.06 0.92 37.47-17.72 57.86-57.48 49.68-96.87-8.19-39.4-42.89-68.56-84.57-71.06l-26.31-43.03c60.42-8.8 119.67 21.65 145.67 74.86 25.99 53.21 12.55 116.52-33.06 155.66C875.53 522.08 927.02 604.33 927 693.9zM623.77 491.17c114.46 46.24 188.65 154.29 187.95 273.71v37.71c0 9.41-3.88 18.44-10.8 25.1-6.92 6.66-16.3 10.39-26.09 10.39H249.17c-9.78 0-19.16-3.74-26.09-10.39-6.92-6.65-10.8-15.68-10.8-25.1v-37.71c-0.73-120.58 74.91-229.44 191-274.9-58.95-45.46-81.54-121.83-56.29-190.33 25.24-68.5 92.77-114.13 168.33-113.72 75.54 0.41 142.54 46.77 166.98 115.54 24.43 68.77 0.95 144.89-58.53 189.7zM258.98 752.09c-0.38 2.02-0.58 4.08-0.59 6.13 0 1.09 0.07 2.17 0.17 3.24 0 0.4-0.05 0.79-0.07 1.2h0.21c2.32 17.74 17.99 31.04 36.56 31.05h433.45c18.58-0.02 34.25-13.32 36.57-31.05h0.2c0-0.4-0.05-0.8-0.05-1.2 0.1-1.07 0.17-2.15 0.17-3.24a34.14 34.14 0 0 0-0.6-6.13c-7.48-116.87-100.22-212.15-220.96-226.98-20.32 3.35-41.1 3.24-61.38-0.33-121.9 13.7-216.13 109.44-223.68 227.31z m255.33-521.76c-72.58 0-131.42 56.6-131.42 126.42 0 69.83 58.84 126.44 131.42 126.44s131.42-56.61 131.42-126.44c-0.01-69.82-58.84-126.42-131.42-126.42zM229.63 381.15c-0.04 33.67 19.72 64.47 51.04 79.5 1.33-0.35 2.69-0.6 4.03-0.92l-0.19 1.28s22.87 3.61 22.87 22.19c0 18.57-22.87 22.18-22.87 22.18l-0.23 0.49c-67.14 21.05-118.28 73.88-135.33 139.8-7.84 12.63-8.27 28.28-1.13 41.29 7.15 13.01 20.83 21.49 36.09 22.37v0.11h3.35l-6.09 44.36h-42.99v-0.11c-23.15-1.26-41.23-19.72-41.16-42.03 0.02-2.23 0.21-4.45 0.59-6.65h-0.31c-0.18-3.69-0.27-7.39-0.28-11.09-0.17-89.34 50.84-171.5 132.68-213.7-42.42-36.75-57.03-94.79-36.81-146.14 20.23-51.35 71.14-85.5 128.23-85.98 6.79 0.05 13.58 0.58 20.29 1.61l-26.1 43.03c-48.35 3.1-85.84 41.81-85.68 88.41z m0 0" fill="#383838" p-id="11439"></path></svg>