<?xml version="1.0" standalone="no"?><!DOCTYPE svg PUBLIC "-//W3C//DTD SVG 1.1//EN" "http://www.w3.org/Graphics/SVG/1.1/DTD/svg11.dtd"><svg t="1729950087091" class="icon" viewBox="0 0 1024 1024" version="1.1" xmlns="http://www.w3.org/2000/svg" p-id="8205" xmlns:xlink="http://www.w3.org/1999/xlink" width="200" height="200"><path d="M799.722 743.993c61.992-74.483 95.914-167.373 95.914-265.077 0-229.293-186.84-415.926-416.565-415.926-229.545 0-416.394 186.633-416.394 415.926 0 229.302 186.84 415.935 416.394 415.935 60.102 0 118.133-12.555 172.377-37.332 16.192-7.389 23.247-26.317 15.84-42.308-5.129-11.145-16.2-18.742-29.046-18.742-4.827 0-9.403 1.073-13.504 2.993-42.504 19.807-92.501 31.409-145.208 31.409-0.164 0-0.329 0-0.493 0-194.222 0-352.306-157.914-352.306-351.945 0-194.031 158.085-351.936 352.332-351.936 194.247 0 352.332 157.905 352.332 351.936 0 91.35-34.956 177.867-98.153 243.747-5.533 5.744-8.941 13.568-8.941 22.19 0 9.050 3.757 17.223 9.795 23.044 1.036 0.864 2.243 1.207 3.277 2.071 0.864 1.206 1.377 2.753 2.412 3.96l165.672 176.994c5.832 6.248 14.117 10.144 23.312 10.144 0.037 0 0.075 0 0.112 0 7.914 0 15.663-2.925 21.864-8.595 6.348-5.845 10.31-14.197 10.31-23.474 0-8.425-3.269-16.088-8.607-21.788l-152.713-163.224z" p-id="8206"></path></svg>