<?xml version="1.0" standalone="no"?><!DOCTYPE svg PUBLIC "-//W3C//DTD SVG 1.1//EN" "http://www.w3.org/Graphics/SVG/1.1/DTD/svg11.dtd"><svg t="1734317132064" class="icon" viewBox="0 0 1024 1024" version="1.1" xmlns="http://www.w3.org/2000/svg" p-id="15558" xmlns:xlink="http://www.w3.org/1999/xlink" width="128" height="128"><path d="M604.26 70.33c12.26-2.47 24.17 2.16 35.7 5.67 63.61 20.14 122.42 55.15 170.6 101.31 7.05 7 15.02 13.61 19.13 22.91 8.06 16.93 4.8 38.62-8.36 52.09-4.93 5.63-11.97 8.61-17.54 13.47-12.87 10.69-21.25 26.47-23.35 43.04-2.6 18.94 2.97 38.89 15.17 53.63 9.99 12.24 24.66 20.75 40.43 22.59 12.25 1.71 24.83-1.44 35.53-7.44 10.3-5.9 22.87-7.65 34.39-4.81 14.69 3.47 27.27 14.67 32.51 28.81 1.84 4.9 2.72 10.08 3.85 15.17 6.87 32.95 10.51 66.62 10.19 100.3-0.35 37.89-5.55 75.7-14.91 112.41-2.8 10.4-9.34 19.72-18.18 25.89-11.26 8.02-26.15 10.48-39.44 6.75-6.99-1.78-12.88-6.25-19.75-8.32-12.91-4.54-27.35-3.71-39.95 1.43-16.43 6.61-29.44 20.52-35.88 36.92-10.07 24.74-4.54 55.09 14.16 74.29 5.09 5.68 12.09 9.2 17.02 15.05 12.93 14.14 15.38 36.51 6.07 53.22-4.65 8.96-12.86 15.13-20 21.97-44.6 40.52-97.5 71.94-154.63 91.18-8.52 2.63-16.98 6.16-26.02 6.38-13.22 0.46-26.56-4.91-35.56-14.65-8.94-9.37-13.54-22.66-12.52-35.55 1.5-14.93-3.26-30.08-11.49-42.46-9.61-14.39-25.23-24.84-42.43-27.39-14.12-2.23-28.94 1.09-40.96 8.78-19.4 12.27-31.53 35.22-30.83 58.13 1.69 12.96-1.93 26.6-10.5 36.56-11.35 13.77-30.95 19.78-48.1 14.98-65.55-19.28-126.14-54.66-175.84-101.48-5.21-4.8-10.5-9.75-13.84-16.1-9.19-16.25-7.3-38.01 4.77-52.3 4.48-5.91 11.17-9.44 16.42-14.53 10.74-10.37 17.77-24.37 20.02-39.1 2.91-18.26-1.72-37.64-12.78-52.48-9.4-12.85-23.68-22.22-39.43-24.92-12.82-2.5-26.28 0.21-37.67 6.4-10.65 5.86-23.6 7.24-35.28 3.93-12.21-3.45-22.84-12.09-28.62-23.4-3.41-6.42-4.62-13.66-6.32-20.65-10.67-46.46-14.62-94.54-10.6-142.08 1.94-23.22 5.6-46.29 10.83-68.99 2.62-11.68 9.95-22.21 20.03-28.66 11.57-7.61 26.6-9.59 39.77-5.29 6.59 1.95 12.07 6.35 18.56 8.55 15.58 6.22 33.77 4.56 48.4-3.45 14.32-7.7 25.26-21.11 30.65-36.39 5.56-15.47 5.45-32.88-0.31-48.27-5.24-14.23-15.58-26.44-28.58-34.2-11.06-6.75-18.95-18.39-21.21-31.14-2.78-14.19 1.68-29.57 11.58-40.1 50.08-51.44 112.69-90.89 181.25-112.45 12.37-3.6 26.2-1.73 37.2 4.97 13.61 8.17 22.34 23.63 22.36 39.5-1.09 15.36 3.67 30.92 12.48 43.47 8.47 12.04 21.12 21.21 35.42 24.93 14.37 3.8 30.15 1.95 43.21-5.18 21.4-11.31 35.08-35.27 34.86-59.34-1.45-10.89 0.49-22.31 6.27-31.72 6.83-11.49 18.89-19.62 32.05-21.84m8.17 46.24c1.38 16.98-1.69 34.2-7.9 50.01-11 27.9-33.38 51.31-61.26 62.61-23.06 9.51-49.53 10.49-73.25 2.8-21.08-6.73-39.81-20.27-53.25-37.81-16.08-20.81-24.64-47.27-23.94-73.56-60.13 19.39-115 54.05-159.3 98.99 16.68 10.16 30.7 24.65 40.22 41.7 12.72 22.47 17.26 49.3 13.32 74.77-4 26.76-17.7 52.05-38.23 69.74-17.67 15.37-40.44 24.87-63.86 26.22-20.61 1.47-41.33-4.08-59.2-14.26-4.57 19.82-7.86 39.95-9.61 60.22-4.14 46.55 0.27 93.67 11.68 138.93 17.48-9.22 37.43-14.17 57.22-12.61 22.53 1.41 44.43 10.39 61.69 24.9 26.23 21.76 41.61 55.74 41.01 89.77 0.3 36.44-17.96 72.41-47.67 93.54 44.98 43.86 100.46 77.06 160.73 94.99-2.03-18.23 1.99-36.81 9.08-53.59 13.33-30.96 41.07-55.64 73.95-63.79 22.89-5.76 47.73-3.89 69.33 5.75 29.57 12.87 52.43 39.43 61.79 70.18 3.92 13.34 6.3 27.47 4.69 41.38 60.29-17.81 115.62-51.18 160.68-94.88-11.35-8.17-21.18-18.41-28.82-30.12-16.24-24.66-22.37-55.58-17.21-84.62 5.29-31.41 24.19-60.41 51.28-77.3 19.6-12.44 43.38-18.23 66.5-16.01 14.16 1.28 27.9 5.79 40.46 12.4 7.51-30.28 12.2-61.3 13.04-92.5 1.04-35.62-2.81-71.34-10.81-106.04-20.71 11.61-45.26 16.57-68.76 12.48-31.89-4.95-60.51-25.43-76.7-53.18-20.58-34.37-21.6-79.52-2.41-114.72 9.37-17.49 23.43-32.4 40.26-42.91-47.84-49.02-108.75-85.12-174.75-103.48z" p-id="15559" fill="#7DB6BF"></path><path d="M501.33 349.37c34.37-1.89 69.3 7.28 98.04 26.29 27.77 18.11 49.78 44.92 62.06 75.72 15.36 38.11 15.52 82.1 0.35 120.29-12.16 31.21-34.36 58.36-62.4 76.66-30.49 20.19-67.96 29.25-104.32 25.83-37.32-3.29-73.23-20.13-99.68-46.63-24.76-24.46-41.32-57.07-46.29-91.53-5.29-35.44 1.38-72.6 19.07-103.79 16.31-29.07 41.73-52.96 71.87-67.23 19.12-9.21 40.11-14.47 61.3-15.61m-7.77 47.47a115.172 115.172 0 0 0-32.16 9.55c-30.98 14.21-55.03 42.66-63.64 75.67-9.44 34.58-1.6 73.31 20.69 101.41 21.72 28.17 56.94 45.49 92.59 44.8 36.67 0.21 72.56-18.72 93.72-48.56 22.54-30.82 28.03-73.04 14.35-108.66-10.27-27.48-31.38-50.68-57.75-63.52-20.81-10.38-44.81-13.95-67.8-10.69z" p-id="15560" fill="#7DB6BF"></path></svg>