<?xml version="1.0" standalone="no"?><!DOCTYPE svg PUBLIC "-//W3C//DTD SVG 1.1//EN" "http://www.w3.org/Graphics/SVG/1.1/DTD/svg11.dtd"><svg t="1734316866548" class="icon" viewBox="0 0 1024 1024" version="1.1" xmlns="http://www.w3.org/2000/svg" p-id="10024" width="128" height="128" xmlns:xlink="http://www.w3.org/1999/xlink"><path d="M784.83 307.97H579.21c-17.21 0-31.17 13.96-31.17 31.17s13.95 31.17 31.17 31.17h205.62c17.21 0 31.17-13.95 31.17-31.17-0.01-17.21-13.96-31.17-31.17-31.17zM444.35 307.97h-71.64v-71.64c0-17.21-13.95-31.17-31.17-31.17s-31.17 13.96-31.17 31.17v71.64h-71.64c-17.21 0-31.17 13.96-31.17 31.17s13.95 31.17 31.17 31.17h71.64v71.64c0 17.21 13.95 31.17 31.17 31.17s31.17-13.95 31.17-31.17v-71.64h71.64c17.21 0 31.17-13.95 31.17-31.17 0-17.21-13.96-31.17-31.17-31.17zM436.28 591.49c-12.17-12.17-31.91-12.17-44.08 0l-50.66 50.66-50.66-50.66c-12.17-12.17-31.91-12.17-44.08 0-12.17 12.17-12.17 31.9 0 44.08l50.66 50.66-50.66 50.66c-12.17 12.17-12.17 31.91 0 44.08 12.17 12.17 31.91 12.17 44.08 0l50.66-50.66 50.66 50.66c12.17 12.17 31.91 12.17 44.08 0 12.17-12.17 12.17-31.9 0-44.08l-50.66-50.66 50.66-50.66c12.17-12.18 12.17-31.91 0-44.08z" fill="#7DB6BF" p-id="10025"></path><path d="M852.23 87.13H171.97c-45.7 0-82.88 37.19-82.88 82.89v684.22c0 45.7 37.18 82.89 82.88 82.89h680.25c45.7 0 82.88-37.19 82.88-82.89V170.02c0.01-45.7-37.18-82.89-82.87-82.89z m20.54 767.11c0 11.34-9.21 20.55-20.54 20.55H171.97c-11.33 0-20.54-9.21-20.54-20.55V170.02c0-11.34 9.21-20.56 20.54-20.56h680.25c11.33 0 20.54 9.21 20.54 20.56v684.22z" fill="#7DB6BF" p-id="10026"></path><path d="M784.83 645.67H579.21c-17.21 0-31.17 13.95-31.17 31.17 0 17.21 13.95 31.17 31.17 31.17h205.62c17.21 0 31.17-13.96 31.17-31.17-0.01-17.22-13.96-31.17-31.17-31.17z" fill="#7DB6BF" p-id="10027"></path><path d="M682.02 590.05m-41.56 0a41.56 41.56 0 1 0 83.12 0 41.56 41.56 0 1 0-83.12 0Z" fill="#7DB6BF" p-id="10028"></path><path d="M682.02 763.62m-41.56 0a41.56 41.56 0 1 0 83.12 0 41.56 41.56 0 1 0-83.12 0Z" fill="#7DB6BF" p-id="10029"></path></svg>