<?xml version="1.0" standalone="no"?><!DOCTYPE svg PUBLIC "-//W3C//DTD SVG 1.1//EN" "http://www.w3.org/Graphics/SVG/1.1/DTD/svg11.dtd"><svg t="1734317080396" class="icon" viewBox="0 0 1024 1024" version="1.1" xmlns="http://www.w3.org/2000/svg" p-id="13157" xmlns:xlink="http://www.w3.org/1999/xlink" width="128" height="128"><path d="M792.8 94.7H442c-21.8 0-39.5 17.7-39.5 39.5s17.7 39.5 39.5 39.5h350.8c83.9 0 152.1 68.3 152.1 152.2V549c0 40.6-15.8 78.9-44.5 107.6-28.7 28.7-67 44.6-107.6 44.6H231.2c-83.9 0-152.1-68.3-152.1-152.2V325.9c0-40.6 15.8-78.9 44.6-107.6 28.7-28.7 66.9-44.6 107.6-44.6 21.8 0 39.5-17.7 39.5-39.5s-17.7-39.5-39.5-39.5c-61.8 0-119.8 24.1-163.5 67.7S0 264.1 0 325.9V549c0 127.5 103.7 231.2 231.2 231.2h561.6c61.8 0 119.8-24.1 163.5-67.7C1000 668.8 1024 610.8 1024 549V325.9c0-127.5-103.7-231.2-231.2-231.2zM802.5 850.3H233.3c-21.8 0-39.5 17.7-39.5 39.5s17.7 39.5 39.5 39.5h569.2c21.8 0 39.5-17.7 39.5-39.5s-17.7-39.5-39.5-39.5z" fill="#7DB6BF" p-id="13158"></path></svg>