<?xml version="1.0" standalone="no"?><!DOCTYPE svg PUBLIC "-//W3C//DTD SVG 1.1//EN" "http://www.w3.org/Graphics/SVG/1.1/DTD/svg11.dtd"><svg t="1734317164886" class="icon" viewBox="0 0 1024 1024" version="1.1" xmlns="http://www.w3.org/2000/svg" p-id="17982" xmlns:xlink="http://www.w3.org/1999/xlink" width="128" height="128"><path d="M864 96H160c-35.346 0-64 28.654-64 64v704c0 35.347 28.654 64 64 64h704c35.346 0 64-28.653 64-64V160c0-35.346-28.654-64-64-64z m32 768c0 17.673-14.327 32-32 32H160c-17.673 0-32-14.327-32-32V160c0-17.673 14.327-32 32-32h704c17.673 0 32 14.327 32 32v704zM512 480c-17.674 0-32 14.327-32 32s14.326 32 32 32c17.673 0 32-14.327 32-32s-14.327-32-32-32z" fill="#7DB6BF" p-id="17983"></path><path d="M512 192c-88.366 0-160 143.269-160 320s71.634 320 160 320c88.365 0 160-143.269 160-320s-71.635-320-160-320z m0 608c-70.692 0-128-128.942-128-288s57.308-288 128-288 128 128.942 128 288-57.308 288-128 288z" fill="#7DB6BF" p-id="17984"></path><path d="M234.872 352C190.689 428.527 278.947 562.198 432 650.564 585.054 738.93 744.945 748.527 789.128 672 833.311 595.474 745.054 461.802 592 373.436 438.947 285.07 279.055 275.473 234.872 352z m526.543 304C726.069 717.222 585.748 702.38 448 622.852 310.252 543.322 227.239 429.221 262.585 368c35.346-61.222 175.667-46.38 313.415 33.148S796.762 594.778 761.415 656z" fill="#7DB6BF" p-id="17985"></path><path d="M789.128 352C744.945 275.473 585.054 285.07 432 373.436 278.946 461.802 190.689 595.473 234.872 672c44.183 76.526 204.074 66.93 357.128-21.436C745.054 562.198 833.311 428.527 789.128 352zM262.584 656C227.238 594.778 310.252 480.678 448 401.149S726.069 306.779 761.415 368C796.762 429.222 713.748 543.322 576 622.852 438.252 702.38 297.931 717.222 262.584 656z" fill="#7DB6BF" p-id="17986"></path></svg>