<?xml version="1.0" standalone="no"?><!DOCTYPE svg PUBLIC "-//W3C//DTD SVG 1.1//EN" "http://www.w3.org/Graphics/SVG/1.1/DTD/svg11.dtd"><svg t="1734317206765" class="icon" viewBox="0 0 1024 1024" version="1.1" xmlns="http://www.w3.org/2000/svg" p-id="20016" xmlns:xlink="http://www.w3.org/1999/xlink" width="128" height="128"><path d="M517.12 542.72v10.24C428.2368 552.96 358.4 497.664 358.4 430.08c0-59.96544 54.97856-110.25408 129.44384-120.832H481.28V235.52h61.44v73.23648c76.32896 9.4208 133.12 60.37504 133.12 121.32352h-63.488c0-30.72-44.4416-61.44-95.232-61.44-50.7904 0-95.232 30.72-95.232 61.44s44.4416 61.44 95.232 61.44v-10.24C606.0032 481.28 675.84 536.576 675.84 604.16c0 60.94848-56.79104 111.89248-133.12 121.32352V788.48h-61.44v-64.53248C410.1632 711.424 358.4 662.34368 358.4 604.16h63.488c0 30.72 44.4416 61.44 95.232 61.44 50.7904 0 95.232-30.72 95.232-61.44s-44.4416-61.44-95.232-61.44zM512 112.64c221.184 0 399.36 178.176 399.36 399.36S733.184 911.36 512 911.36 112.64 733.184 112.64 512s178.176-399.36 399.36-399.36z m0 51.2c-192.8192 0-348.16 155.3408-348.16 348.16s155.3408 348.16 348.16 348.16 348.16-155.3408 348.16-348.16-155.3408-348.16-348.16-348.16z" fill="#7DB6BF" p-id="20017"></path></svg>