<?xml version="1.0" standalone="no"?><!DOCTYPE svg PUBLIC "-//W3C//DTD SVG 1.1//EN" "http://www.w3.org/Graphics/SVG/1.1/DTD/svg11.dtd"><svg t="1734317152846" class="icon" viewBox="0 0 1024 1024" version="1.1" xmlns="http://www.w3.org/2000/svg" p-id="16760" xmlns:xlink="http://www.w3.org/1999/xlink" width="128" height="128"><path d="M329.7 179.4c8.1 0 15.2-2.8 20.5-8.2 5-4.9 7.7-11.6 7.7-18.6 0-7.7-3.2-14.7-8.9-19.8-5.3-4.7-12.2-7-20.3-7H97.9c-17.2 0-28.3 10.5-28.3 26.8s11.1 26.8 28.3 26.8h231.8z m102.9 246.2H176.4c-4.1 0-6.6-0.4-8-0.7-0.3-1-0.6-2.8-0.6-5.6v-36.9c0-8.6-3.5-16.3-9.7-21.6-5.3-5-12-7.6-19.5-7.6-7.6 0-14.5 2.7-19.8 7.9-5.9 5.4-9 12.8-9 21.4v39.4c0 16.5 5.3 30.3 15.7 41.2 10.6 11 24.8 16.6 42.1 16.6h264.9c16.6 0 27.3-10.7 27.3-27.3 0.1-16.3-10.7-26.8-27.2-26.8z m-124.3-213c-0.1 0-0.1-0.1-0.2-0.1-23.3-15.1-54.6-22.7-92.9-22.7-39.3 0-70.9 7.7-94 22.8l-0.1 0.1C97.8 228.5 86 248.9 86 273.4c0 23.6 12.2 44 35.2 58.8 23.1 15.5 54.7 23.3 94 23.3 38.3 0 69.6-7.8 92.9-23.2 23.1-14.9 35.3-35.2 35.3-58.9 0-24.6-11.8-45-35.1-60.8z m-36.6 77.9c-13 7.2-32 10.8-56.5 10.8-24.9 0-44.2-3.6-57.5-10.8-12.3-6.7-13.7-13-13.7-17.2 0-5 1.6-11.7 13.8-18.7 13.3-7.1 32.6-10.8 57.4-10.8 24.5 0 43.5 3.6 56.5 10.8 12.1 6.6 13.7 13.4 13.7 18.6 0.1 4.2-1.4 10.5-13.7 17.3zM150.3 119.2h128.1c10.7 0 17-4.2 20.4-7.8 3.3-3.5 7.2-9.7 6.9-19.8-0.1-16.1-11.2-26.5-28.3-26.5H150.3c-17.2 0-28.3 10.5-28.3 26.8 0 16.6 11.1 27.3 28.3 27.3z m335.9 84.7c-1.6-1-3.4-1.5-5.2-1.5h-43V84.1c0-16.8-11.5-27.7-29.2-27.7-17.5 0-28.8 10.9-28.8 27.8v268.3c0 8.6 3.1 16 9 21.4 5.3 5.1 12.1 7.9 19.8 7.9 7.5 0 14.2-2.6 19.5-7.6 6.3-5.3 9.7-13 9.7-21.6v-95.9h38.2c16.6 0 27.3-10.7 27.3-27.3 0-12.6-6.5-22.1-17.3-25.5zM933.7 437l-159-341c-4.9-10.5-15.6-17.3-27.2-17.3h-35.9c-11.5 0-22.2 6.7-27.1 17.2l-161.1 341c-4.4 9.3-3.7 20.1 1.8 28.9 5.5 8.7 15 13.9 25.3 13.9h7.6c11.5 0 22.2-6.7 27.1-17.2l49.6-104.8c0.1-0.2 0.3-0.4 0.6-0.4h187c0.2 0 0.5 0.2 0.6 0.4l50.1 104.9c5 10.4 15.6 17.1 27.1 17.1h6.4c10.3 0 19.8-5.2 25.3-13.9s6.2-19.5 1.8-28.8zM792.1 288.3c-0.2 0.3-0.2 0.3-0.5 0.3H666.8c-0.3 0-0.4 0-0.5-0.3-0.2-0.2-0.2-0.3 0-0.6L728 157.4c0.2-0.3 0.2-0.3 0.6-0.4 0.3 0 0.4 0.1 0.5 0.4l63 130.3c0.2 0.3 0.2 0.4 0 0.6z m89.4 336.2c-36.1-34.8-85.7-53.1-143.6-53.1-66 0-122.4 21.1-163.1 61-39.5 38.7-61.2 93.7-61.2 154.9 0 82.9 42.1 140.8 102.4 140.8 24.9 0 47.6-8.8 64.1-24.7 17.1-16.1 32.2-37.8 50.2-90.9v-0.1c15.2-46.4 25.7-107 30.7-175.9 30.1 3.7 55.7 15.9 74.3 35.5 21.2 22.4 32.4 52.9 32.4 88.5 0 40.5-16.5 76.1-45.2 97.5-19.8 14.7-52.4 26.3-87.1 31h-0.5c-17.6 3.1-29.1 15.9-29.1 32.8 0 1.8 0 4.8 0.8 7.9 3.1 17.2 16.1 27.8 34 27.8 1.7 0 4.6 0 7.9-0.7 41.3-6.3 76.2-18.3 103.6-35.8 55.1-35 84.2-90.2 84.2-159.7 0.1-54.8-18.9-102.2-54.8-136.8zM664.8 790.2c-12.3 37.3-22.3 52.3-28.6 58.3l-0.2 0.2c-6.3 6.3-13 9.3-21 9.3-7.7 0-15.2-5.3-21.3-15-8.4-13.3-12.8-32.7-12.8-56.2 0-41.1 12.2-77 35.3-103.9 19.4-22.5 45.6-37.4 76.3-43.6-4.1 54.6-14.2 110.2-27.7 150.9zM381.1 612.5c-21.6 0-35.6 12.7-35.6 32.2v155.1c0 19.9-5 35-17.1 52.2-17.5 24.2-38.6 36-64.4 36-17.3 0-29.8-5.1-38.1-15.6-8.5-10.7-12.8-27.3-12.8-49.2V644.7c0-19.6-14-32.2-35.6-32.2s-35.6 12.7-35.6 32.2v189.1c0 74.7 41.9 119.3 112 119.3 38.5 0 69.7-13 92.1-38.1v2.5c0 18.6 14 30.6 35.6 30.6 20.9 0 34.5-12.7 34.5-32.3V644.7c0-19.6-13.7-32.2-35-32.2z m-110.5-59.8c0-23.9-19.5-43.4-43.4-43.4s-43.4 19.5-43.4 43.4 19.5 43.4 43.4 43.4 43.4-19.5 43.4-43.4z m105.9 0c0-23.9-19.5-43.4-43.4-43.4s-43.4 19.5-43.4 43.4 19.5 43.4 43.4 43.4 43.4-19.5 43.4-43.4z" fill="#7DB6BF" p-id="16761"></path></svg>